# xmcd CD database file
#
# Track frame offsets:
#	150
#	16565
#	31985
#	45157
#	55272
#	68440
#	79742
#	91417
#	130460
#	148142
#
# Disc length: 2188 seconds
#
# Revision: 0
# Processed by: cddbd v1.5.1PL0 Copyright (c) Steve Scherf et al.
# Submitted via: CDex 1.60beta1
#
DISCID=76088a0a
DTITLE=Patsy Montana - The Cowboy's Sweetheart
DYEAR=1997
DGENRE=Country
TTITLE0=I Want To Be A Cowboy's Sweetheart
TTITLE1=That Silver Haired Daddy Of Mine
TTITLE2=Sixteen Pounds
TTITLE3=Riding Down The Canyon
TTITLE4=Another Cowboy Song
TTITLE5=Roll Along Kentucy Moon
TTITLE6=I've Traded My City Feller (For A Cowboy's Sweetheart)
TTITLE7=Western Medley:Streets Of Laredo/Red River Valley/Home On The Range/Cattle Call/Cool Water
TTITLE8=The Cowgirl Song
TTITLE9=Renfro Valley
EXTD=YEAR: 1997
EXTT0=
EXTT1=
EXTT2=
EXTT3=
EXTT4=
EXTT5=
EXTT6=
EXTT7=
EXTT8=
EXTT9=
PLAYORDER=
